# xmcd
# 
# Track frame offsets:
#     150
#     18678
#     42916
#     61430
# 
# Disc length: 1137
# 
# Revision: 3
# Processed by: cddbd v1.5.2PL0 Copyright (c) Steve Scherf et al.
# Submitted via: fre:ac v1.0.27
# 
DISCID=31046f04
DTITLE=安全地帯 - 反省/あの頃へ
DYEAR=2002
DGENRE=J-Pop
TTITLE0=反省
TTITLE1=あの頃へ 2003 New Version
TTITLE2=反省 (Instrumental)
TTITLE3=あの頃へ 2003 New Version (Instrumental)
EXTD=
EXTT0=
EXTT1=
EXTT2=
EXTT3=
PLAYORDER=
